<svg xmlns="http://www.w3.org/2000/svg" viewBox="0 0 1200 1008" fill="currentColor"><path d="M 481 53.430 C 478.525 54.085, 475.825 54.895, 475 55.228 C 474.175 55.561, 462.925 56.077, 450 56.373 C 437.075 56.670, 424.025 57.418, 421 58.036 C 410.028 60.278, 397.081 63.925, 395.550 65.205 C 395.027 65.642, 393.592 66, 392.359 66 C 391.126 66, 389.840 66.450, 389.500 67 C 389.160 67.550, 388.024 68, 386.975 68 C 385.926 68, 383.590 68.628, 381.784 69.395 C 379.978 70.163, 376.250 71.289, 373.500 71.898 C 368.524 73.001, 365.250 72.473, 357 69.236 C 349.302 66.217, 347.355 65.963, 343.178 67.437 C 337.186 69.551, 332.657 72.923, 327.816 78.874 C 325.469 81.760, 321.962 84.795, 320.024 85.619 C 309.028 90.294, 305.654 92.670, 299.604 100 C 291.730 109.540, 289.122 115.204, 287.928 125.362 C 285.658 144.661, 286.668 142.556, 275.994 150.245 C 270.772 154.007, 264.025 158.720, 261 160.719 C 248.048 169.276, 239.008 177.944, 232.146 188.387 C 228.491 193.949, 225.315 198.942, 225.089 199.483 C 224.863 200.023, 221.601 204.367, 217.839 209.135 C 214.078 213.904, 211 218.078, 211 218.412 C 211 218.745, 208.567 222.789, 205.594 227.398 C 197.501 239.944, 195 244.775, 195 247.863 C 195 250.827, 198.631 260.502, 201.985 266.472 C 203.093 268.446, 204 270.977, 204 272.096 C 204 273.216, 204.514 275.092, 205.143 276.267 C 207.398 280.480, 205.986 294.204, 202.444 302.500 C 199.264 309.949, 197.001 316.679, 197.001 318.691 C 197 319.896, 196.550 321.160, 196 321.500 C 194.715 322.294, 194.667 351.276, 195.944 355.429 C 196.464 357.118, 197.439 361.875, 198.110 366 C 198.782 370.125, 199.669 374.441, 200.081 375.591 C 200.807 377.619, 210.251 382.996, 213.100 383.004 C 216.781 383.014, 221.498 387.852, 230.814 401.173 C 243.691 419.586, 251.412 427.172, 270.722 440.377 C 278.106 445.427, 279.471 446, 284.127 446 C 287.956 446, 290.120 446.597, 292.406 448.284 C 296.462 451.278, 300.518 453, 303.512 453 C 305.957 453, 313.509 449.243, 317.883 445.851 C 320.245 444.019, 320.309 444.034, 325.225 447.566 C 329.671 450.761, 330.976 451.170, 337.842 451.527 C 342.054 451.746, 350.585 452.208, 356.801 452.553 C 366.223 453.075, 368.717 452.898, 371.801 451.488 C 375.329 449.874, 390.816 442.192, 394.673 440.142 C 399.240 437.715, 408.189 434, 409.468 434 C 410.246 434, 411.131 433.598, 411.435 433.106 C 412.900 430.735, 437.167 429.286, 445 431.101 C 451.535 432.615, 461.954 437.979, 467.430 442.649 C 469.591 444.492, 471.954 446, 472.680 446 C 473.406 446, 474 446.355, 474 446.789 C 474 447.223, 476.363 448.746, 479.250 450.174 C 485.671 453.348, 499.431 455.717, 501.497 454.003 C 503.889 452.017, 508.340 453.190, 509.073 456 C 509.679 458.323, 509.774 458.358, 510.426 456.500 C 511.226 454.220, 513.790 448.343, 515.111 445.764 C 515.600 444.809, 516 443.346, 516 442.514 C 516 441.681, 516.450 441, 517 441 C 517.550 441, 518 440.127, 518 439.059 C 518 437.991, 518.383 436.881, 518.852 436.592 C 519.320 436.302, 520.480 433.913, 521.429 431.283 C 523.686 425.029, 524.878 422.118, 526.593 418.669 C 527.367 417.112, 528 415.193, 528 414.405 C 528 413.618, 528.397 412.191, 528.883 411.236 C 529.369 410.281, 530.312 408.150, 530.980 406.500 C 534.566 397.630, 536.195 396.253, 537.768 400.765 C 538.316 402.336, 539.396 404.269, 540.169 405.060 C 540.941 405.852, 543.643 410.550, 546.173 415.500 C 553.193 429.233, 554.437 431.472, 555.250 431.833 C 555.663 432.017, 556 433.029, 556 434.083 C 556 435.137, 556.406 436, 556.902 436 C 557.398 436, 558.277 437.238, 558.854 438.750 C 559.431 440.262, 560.669 442.850, 561.603 444.500 C 562.538 446.150, 563.667 448.254, 564.113 449.175 C 565.075 451.164, 572.184 464.432, 576.074 471.500 C 581.359 481.103, 589 496.596, 589 497.710 C 589 498.328, 589.337 498.983, 589.750 499.167 C 590.483 499.492, 591.820 502.148, 599.488 518.500 C 601.551 522.900, 604.761 529.584, 606.620 533.353 C 608.479 537.122, 610 541.033, 610 542.044 C 610 543.055, 610.415 544.139, 610.923 544.452 C 611.431 544.766, 612.137 546.347, 612.493 547.966 C 612.848 549.585, 613.944 551.165, 614.929 551.477 C 616.679 552.033, 620.005 551.245, 621 550.040 C 621.813 549.055, 631.370 542.374, 633 541.651 C 633.825 541.286, 636.300 539.857, 638.500 538.476 C 640.700 537.095, 643.400 535.518, 644.500 534.970 C 645.600 534.423, 648.075 533.018, 650 531.848 C 657.782 527.119, 663.682 523.958, 669.208 521.557 C 671.247 520.671, 673.186 519.509, 673.517 518.973 C 673.847 518.438, 674.991 518, 676.059 518 C 677.127 518, 678 517.550, 678 517 C 678 516.450, 678.684 516, 679.520 516 C 680.356 516, 682.822 514.875, 685 513.500 C 687.178 512.125, 689.425 511, 689.994 511 C 690.562 511, 691.809 510.588, 692.764 510.084 C 694.725 509.049, 699.804 506.935, 705 504.990 C 706.925 504.269, 708.927 503.302, 709.450 502.840 C 709.972 502.378, 711.570 502, 713 502 C 714.430 502, 716.028 501.642, 716.550 501.205 C 717.073 500.768, 720.200 499.564, 723.500 498.529 C 726.800 497.494, 729.927 496.276, 730.450 495.823 C 730.972 495.370, 733.245 495, 735.500 495 C 737.755 495, 740.028 494.587, 740.550 494.082 C 741.916 492.762, 751 491.571, 751 492.712 C 751 493.229, 749.875 494.708, 748.500 496 C 747.125 497.292, 746 498.875, 746 499.519 C 746 500.163, 745.212 501.407, 744.250 502.282 C 743.288 503.158, 741.604 505.590, 740.510 507.687 C 739.415 509.784, 738.290 511.725, 738.010 512 C 737.390 512.608, 732.116 523.525, 730.763 527 C 730.228 528.375, 729.227 530.850, 728.539 532.500 C 726.306 537.858, 725 542.585, 725 545.307 C 725 546.772, 724.570 549.890, 724.044 552.236 C 721.456 563.788, 720.593 570.877, 719.874 586.500 C 719.443 595.850, 718.663 606.875, 718.139 611 C 715.767 629.686, 715.012 634.282, 714.140 635.353 C 713.626 635.984, 712.967 638.750, 712.674 641.500 C 711.980 648.038, 711.054 653.021, 710.072 655.500 C 709.636 656.600, 708.498 660.200, 707.542 663.500 C 706.586 666.800, 705.165 670.993, 704.385 672.819 C 703.605 674.644, 703.226 676.556, 703.542 677.069 C 704.354 678.382, 709.414 678.169, 717 676.500 C 724.650 674.817, 757.002 674.533, 764 676.086 C 766.475 676.636, 770.750 677.322, 773.500 677.612 C 776.250 677.902, 779.400 678.529, 780.500 679.007 C 783.314 680.230, 788.928 680.965, 800.500 681.629 C 806 681.944, 810.816 682.495, 811.203 682.854 C 811.590 683.213, 810.522 685.080, 808.829 687.003 C 807.137 688.926, 803.770 693.425, 801.347 697 C 795.845 705.118, 788.499 715.745, 786.225 718.875 C 785.276 720.181, 783.600 722.875, 782.500 724.860 C 781.400 726.846, 779.712 729.349, 778.750 730.424 C 777.788 731.498, 777 732.772, 777 733.255 C 777 733.738, 775.875 735.608, 774.500 737.411 C 773.125 739.214, 772 740.979, 772 741.333 C 772 741.958, 760.192 758.994, 759.062 760 C 758.753 760.275, 756.043 763.425, 753.040 767 C 737.780 785.167, 715.116 804.891, 699.850 813.291 C 697.292 814.698, 693.363 817.008, 691.119 818.425 C 688.876 819.841, 686.446 821, 685.720 821 C 684.994 821, 683.973 821.414, 683.450 821.920 C 682.928 822.426, 678.225 824.487, 673 826.499 C 667.775 828.511, 662.306 830.797, 660.846 831.579 C 659.386 832.360, 657.275 833, 656.155 833 C 655.035 833, 653.840 833.450, 653.500 834 C 653.160 834.550, 651.928 835, 650.762 835 C 648.711 835, 644.730 836.043, 638.500 838.214 C 636.850 838.788, 632.800 839.664, 629.500 840.158 C 626.200 840.653, 621.810 841.318, 619.744 841.635 C 617.678 841.952, 615.739 842.614, 615.435 843.106 C 615.131 843.598, 613.896 843.998, 612.691 843.995 C 610.060 843.989, 600.638 847.190, 600.167 848.250 C 599.496 849.758, 598.126 848.942, 597.651 846.750 C 597.382 845.512, 597.389 848.550, 597.666 853.500 C 598.108 861.405, 598.521 862.987, 601.063 866.500 C 602.654 868.700, 605.280 872.750, 606.898 875.500 C 608.517 878.250, 611.443 882.300, 613.401 884.500 C 615.359 886.700, 616.970 888.856, 616.981 889.292 C 616.991 889.727, 617.845 890.991, 618.879 892.100 C 622.184 895.648, 623.144 909.326, 620.527 915.589 C 619.643 917.705, 619.378 919.791, 619.864 920.807 C 624.349 930.180, 625.985 932.745, 629.025 935.172 C 632.457 937.911, 632.902 937.991, 646.025 938.202 C 653.545 938.323, 662.593 937.861, 666.500 937.158 C 676.248 935.402, 695.294 930.920, 696.500 930.099 C 697.050 929.724, 699.300 928.821, 701.500 928.093 C 709.888 925.318, 723 919.033, 723 917.789 C 723 917.355, 723.482 917, 724.071 917 C 725.271 917, 736.147 909.355, 740 905.804 C 741.375 904.537, 744.093 902.311, 746.041 900.859 C 750.336 897.654, 765.120 882.661, 768.245 878.340 C 769.485 876.625, 771.747 873.655, 773.270 871.740 C 776.167 868.100, 784.577 851.732, 786.228 846.522 C 786.755 844.860, 787.570 841.925, 788.038 840 C 788.507 838.075, 789.640 833.800, 790.555 830.500 C 791.471 827.200, 792.508 822.250, 792.860 819.500 C 793.479 814.665, 793.715 814.360, 800 810.266 C 808.903 804.467, 812.574 800.823, 815.125 795.247 C 817.660 789.707, 817.695 789.006, 816.164 774.457 C 814.621 759.800, 816.514 751.731, 823.170 744.587 C 824.177 743.507, 825 742.330, 825 741.972 C 825 741.129, 836.743 732, 837.827 732 C 838.280 732, 839.742 730.832, 841.076 729.404 C 842.409 727.976, 847.100 724.270, 851.500 721.169 C 855.900 718.068, 861.773 713.274, 864.550 710.515 C 869.566 705.534, 875 697.990, 875 696.008 C 875 695.439, 875.406 694.191, 875.903 693.236 C 879.597 686.128, 880.879 663.796, 878.183 653.500 C 875.623 643.723, 874.686 640.403, 872.257 632.500 C 870.904 628.100, 869.393 623.719, 868.899 622.764 C 868.404 621.809, 868 620.115, 868 619 C 868 617.885, 867.599 616.191, 867.109 615.236 C 866.619 614.281, 865.468 610.350, 864.551 606.500 C 861.778 594.852, 863.559 565.108, 867.251 561.416 C 867.663 561.004, 868 559.617, 868 558.333 C 868 557.050, 868.450 556, 869 556 C 869.550 556, 870 555.127, 870 554.059 C 870 552.991, 870.451 551.839, 871.003 551.498 C 871.554 551.158, 872.882 548.994, 873.954 546.689 C 875.025 544.385, 877.169 541.150, 878.718 539.500 C 880.266 537.850, 882.876 534.863, 884.516 532.861 C 888.912 527.501, 905.702 513.468, 918.500 504.460 C 922.350 501.750, 926.372 498.737, 927.439 497.766 C 928.505 496.795, 929.710 496, 930.117 496 C 930.524 496, 931.452 495.437, 932.179 494.750 C 932.905 494.063, 936.680 490.929, 940.567 487.786 C 947.657 482.054, 959.996 469.652, 960.005 468.249 C 960.007 467.837, 961.357 466.062, 963.005 464.304 C 964.652 462.547, 966 460.829, 966 460.488 C 966 460.146, 967.125 458.392, 968.500 456.589 C 969.875 454.786, 971 452.829, 971 452.239 C 971 451.649, 971.337 451.017, 971.750 450.833 C 972.606 450.453, 975.485 445.414, 980.226 436 C 982.027 432.425, 983.837 429.350, 984.250 429.167 C 984.663 428.983, 985 428.190, 985 427.403 C 985 426.616, 985.428 425.191, 985.952 424.236 C 987.486 421.437, 989.642 415.838, 991.051 411 C 991.771 408.525, 992.682 406.050, 993.076 405.500 C 994.147 404.005, 996.108 397.153, 997.083 391.500 C 997.558 388.750, 998.228 384.852, 998.572 382.838 C 999.110 379.691, 998.854 378.950, 996.749 377.571 C 994.685 376.219, 993.449 376.139, 988.900 377.063 C 979.462 378.980, 971.046 381.163, 960 384.561 C 955.875 385.830, 950.475 387.403, 948 388.057 C 945.525 388.710, 941.250 389.952, 938.500 390.815 C 935.598 391.726, 929.724 392.409, 924.500 392.442 C 916.117 392.496, 915.247 392.306, 911.805 389.673 C 909.138 387.633, 907.657 385.406, 906.483 381.673 C 903.450 372.024, 899.179 365.448, 889.906 356.150 C 883.887 350.115, 880.144 347.475, 866.437 339.596 C 858.319 334.930, 851.680 328.143, 850 322.793 C 849.259 320.432, 848.280 318.073, 847.826 317.550 C 847.372 317.028, 847 315.784, 847 314.786 C 847 313.789, 846.579 312.191, 846.064 311.236 C 845.549 310.281, 843.886 306.800, 842.369 303.500 C 840.561 299.569, 837.327 295.233, 832.988 290.924 C 822.787 280.792, 821.343 278.469, 820.607 271 C 819.168 256.402, 818.417 253.285, 814.967 247.592 C 813.063 244.451, 809.929 240.168, 808.003 238.075 C 797.709 226.889, 792.077 218.530, 786.727 206.500 C 782.606 197.236, 774.078 181.142, 769.523 174.036 C 767.035 170.155, 765 166.602, 765 166.140 C 765 165.679, 763.671 163.322, 762.047 160.904 C 758.393 155.463, 759.685 153.253, 763.682 158.106 C 771.087 167.098, 775.561 169.068, 779.983 165.283 C 783.474 162.293, 784.396 157.645, 782.360 153.288 C 779.025 146.149, 774.172 139.496, 767.838 133.382 C 757.280 123.191, 751.064 121.039, 739.186 123.462 C 734.944 124.327, 730.130 125.239, 728.487 125.488 C 726.844 125.738, 723.700 126.456, 721.500 127.084 C 719.300 127.712, 714.350 128.562, 710.500 128.973 C 706.650 129.384, 702.150 130.162, 700.500 130.703 C 697.184 131.789, 690.293 131.283, 689.432 129.890 C 689.129 129.400, 688.009 129, 686.941 129 C 685.873 129, 685 128.640, 685 128.200 C 685 127.263, 670.871 118.006, 666.500 116.080 C 664.850 115.353, 661.475 113.773, 659 112.570 C 652.047 109.189, 640.016 106, 634.217 106 C 629.262 106, 621.468 109.206, 617.712 112.788 C 613.536 116.771, 612 120.658, 612 127.244 C 612 132.111, 611.505 133.881, 609.250 137.069 C 607.425 139.650, 605.722 140.964, 604.188 140.979 C 601.506 141.003, 591.947 138.113, 590.550 136.855 C 590.028 136.385, 588.995 136, 588.256 136 C 587.517 136, 581.869 132.481, 575.706 128.179 C 569.543 123.878, 560.900 118.671, 556.500 116.608 C 552.100 114.545, 547.600 112.359, 546.500 111.750 C 538.785 107.475, 530.593 103.847, 526.874 103.057 C 522.728 102.177, 519.334 101.279, 512.500 99.255 C 509.836 98.466, 509.464 97.877, 509.183 93.993 C 509.009 91.587, 509.334 88.692, 509.906 87.559 C 514.070 79.314, 515.412 64.632, 512.515 59.029 C 509.557 53.309, 506.273 51.987, 495.346 52.119 C 489.931 52.184, 483.475 52.774, 481 53.430 M 144.137 417.585 C 140.087 418.938, 135.995 420.597, 135.042 421.272 C 129.063 425.512, 121.990 432.646, 120.177 436.269 C 110.717 455.169, 114.496 471.040, 130 477.518 C 137.089 480.480, 138.291 481.575, 141.775 488.237 C 143.576 491.682, 144.774 493.459, 144.437 492.187 C 143.894 490.133, 144.034 490.004, 145.685 491.035 C 146.708 491.674, 148.018 493.165, 148.596 494.349 C 149.174 495.532, 150.788 498.750, 152.182 501.500 C 154.546 506.164, 156.352 510.009, 162.397 523.250 C 167.596 534.640, 169.383 538.073, 170.664 539.136 C 171.399 539.746, 172 540.644, 172 541.132 C 172 541.859, 177.150 550.375, 183.752 560.567 C 184.441 561.630, 185.427 563.400, 185.943 564.500 C 190.055 573.269, 198.940 583.377, 203.732 584.738 C 214.086 587.679, 224.787 588.946, 257 591.045 C 277.137 592.357, 305 593.333, 305 592.727 C 305 592.450, 301.351 588.686, 296.890 584.362 C 292.430 580.038, 284.473 571.100, 279.209 564.500 C 273.944 557.900, 267.131 549.778, 264.069 546.452 C 261.006 543.125, 254.225 534.887, 249 528.145 C 243.775 521.404, 238.592 514.900, 237.482 513.694 C 236.371 512.487, 230.698 506.100, 224.874 499.500 C 219.049 492.900, 209.833 483.262, 204.392 478.082 C 198.951 472.903, 193.715 467.503, 192.757 466.082 C 190.806 463.193, 190.368 459.491, 192.104 460.564 C 192.711 460.939, 192.557 460.178, 191.762 458.873 C 190.967 457.568, 189.776 452.900, 189.115 448.500 C 187.657 438.794, 184.058 431.204, 178 425.063 C 168.088 415.013, 158.303 412.852, 144.137 417.585 M 532.487 425.624 C 531.119 428.718, 530 431.423, 530 431.635 C 530 432.750, 510.305 473.878, 502.529 489 C 501.257 491.475, 497.963 498, 495.209 503.500 C 488.047 517.804, 485.589 522.431, 484.853 523 C 484.497 523.275, 482.948 526.200, 481.410 529.500 C 479.872 532.800, 477.575 537.179, 476.307 539.230 C 475.038 541.282, 474 543.869, 474 544.980 C 474 546.091, 473.602 547, 473.117 547 C 472.631 547, 471.993 548.013, 471.699 549.250 C 471.404 550.487, 470.385 553.525, 469.433 556 C 465.914 565.146, 464.050 582.744, 465.913 589.222 C 466.511 591.300, 467.534 594.913, 468.186 597.250 C 470.804 606.634, 483.394 622.375, 494.213 629.792 C 507.500 638.901, 522.275 642.647, 541 641.655 C 553.560 640.990, 559.816 640.107, 560.565 638.894 C 560.869 638.402, 561.900 638, 562.857 638 C 563.813 638, 567.624 636.449, 571.326 634.553 C 578.728 630.763, 593.226 616.899, 596.102 610.862 C 596.982 609.013, 598.732 605.475, 599.988 603 C 603.516 596.054, 604.347 591.456, 604.329 579 C 604.309 565.900, 602.519 555.973, 598.877 548.764 C 598.395 547.809, 598 545.923, 598 544.573 C 598 543.223, 597.550 541.840, 597 541.500 C 596.450 541.160, 596 540.242, 596 539.460 C 596 538.678, 594.159 534.092, 591.909 529.269 C 583.117 510.427, 582.218 508.427, 581.553 506.250 C 581.175 505.012, 580.446 504, 579.933 504 C 579.420 504, 579 503.339, 579 502.530 C 579 501.722, 578.174 499.585, 577.163 497.780 C 570.900 486.593, 568.282 481.709, 561.911 469.324 C 558 461.721, 552.174 450.550, 548.964 444.500 C 545.754 438.450, 541.682 430.462, 539.916 426.750 C 538.149 423.038, 536.315 420, 535.839 420 C 535.364 420, 533.855 422.531, 532.487 425.624 M 711 513 C 711 513.550, 710.184 514, 709.187 514 C 708.190 514, 705.042 515.125, 702.192 516.500 C 699.342 517.875, 696.551 519, 695.991 519 C 695.431 519, 694.191 519.425, 693.236 519.946 C 692.281 520.466, 686.325 523.385, 680 526.434 C 673.675 529.483, 665.800 533.547, 662.500 535.466 C 659.200 537.385, 654.925 539.746, 653 540.713 C 648.349 543.048, 633.893 552.257, 632 554.089 C 631.175 554.888, 628.189 557.220, 625.364 559.272 C 617.261 565.159, 617 565.862, 617 581.839 C 617 591.691, 616.559 596.998, 615.489 600.030 C 614.658 602.385, 614.242 604.576, 614.564 604.898 C 614.886 605.220, 617.029 603.430, 619.325 600.921 C 637.820 580.710, 649.041 569.328, 660.807 558.846 C 668.338 552.137, 674.950 546.165, 675.500 545.574 C 676.050 544.983, 678.750 542.709, 681.500 540.521 C 684.250 538.332, 687.127 535.937, 687.893 535.199 C 688.659 534.461, 692.484 531.326, 696.393 528.232 C 700.302 525.139, 703.725 522.343, 704 522.021 C 704.275 521.698, 706.975 519.683, 710 517.543 C 717.713 512.088, 717.779 512, 714.200 512 C 712.440 512, 711 512.450, 711 513 M 505.685 516.534 C 504.758 518.478, 504 520.728, 504 521.534 C 504 522.340, 503.550 523, 503 523 C 502.450 523, 502 523.591, 502 524.313 C 502 525.035, 500.875 527.958, 499.500 530.808 C 498.125 533.658, 497 536.449, 497 537.009 C 497 537.569, 496.480 539.034, 495.844 540.264 C 495.208 541.494, 494.233 543.400, 493.678 544.500 C 493.123 545.600, 490.943 551.440, 488.834 557.478 C 485.442 567.189, 485 569.537, 485 577.827 C 485 583.978, 485.515 588.366, 486.500 590.599 C 487.325 592.469, 488.660 595.498, 489.466 597.330 C 491.176 601.213, 507.236 617, 509.477 617 C 510.314 617, 511 617.370, 511 617.823 C 511 619.326, 520.425 623.413, 525.500 624.110 C 528.250 624.488, 531.625 625.127, 533 625.532 C 535.674 626.318, 534.017 624.567, 522.090 614 C 505.014 598.870, 500.729 593.564, 499.075 585.500 C 497.344 577.058, 498.492 555.329, 500.977 549.500 C 501.769 547.641, 502.752 544.102, 505.070 534.750 C 505.582 532.688, 506.493 529.087, 507.096 526.750 C 508.685 520.590, 509.340 513, 508.282 513 C 507.781 513, 506.612 514.590, 505.685 516.534 M 718.428 522.250 C 714.473 526.524, 702.498 537.483, 689.500 548.725 C 680.840 556.215, 635.188 602.344, 628.444 610.419 C 625.725 613.675, 620.629 619.300, 617.120 622.919 C 609.990 630.273, 601.672 641.005, 602.477 641.811 C 602.767 642.100, 604.127 641.811, 605.502 641.168 C 606.876 640.526, 609.237 639.457, 610.750 638.793 C 612.263 638.129, 614.175 637.078, 615 636.458 C 615.825 635.837, 618.075 634.760, 620 634.064 C 625.444 632.095, 627.214 631.401, 631.284 629.639 C 633.365 628.737, 635.926 628, 636.975 628 C 638.024 628, 639.160 627.550, 639.500 627 C 639.840 626.450, 641.640 626, 643.500 626 C 645.360 626, 647.160 625.550, 647.500 625 C 647.840 624.450, 649.387 624, 650.937 624 C 652.487 624, 655.371 623.325, 657.346 622.500 C 661.345 620.829, 667 620.495, 667 621.930 C 667 622.777, 661.294 625.783, 655 628.253 C 653.625 628.792, 651.719 629.631, 650.764 630.117 C 649.809 630.603, 648.413 631, 647.663 631 C 646.912 631, 644.182 632.125, 641.596 633.500 C 639.010 634.875, 636.257 636, 635.478 636 C 634.698 636, 632.360 636.958, 630.280 638.129 C 628.201 639.300, 623.350 641.942, 619.500 644 C 607.958 650.170, 600.535 654.607, 596.500 657.751 C 595.950 658.179, 593.250 660.179, 590.500 662.194 C 582.437 668.103, 570.521 681.559, 567.647 688 C 567.279 688.825, 566.116 690.850, 565.062 692.500 C 564.008 694.150, 563.113 696.288, 563.073 697.250 C 563.033 698.212, 562.550 699, 562 699 C 561.450 699, 561 699.459, 561 700.020 C 561 700.581, 559.875 702.822, 558.500 705 C 555.658 709.501, 555.242 713, 557.548 713 C 558.399 713, 561.437 711.520, 564.298 709.711 C 567.159 707.902, 572.200 705.094, 575.500 703.471 C 578.800 701.848, 581.725 700.286, 582 700.001 C 582.275 699.715, 584.300 698.585, 586.500 697.490 C 588.700 696.396, 590.650 695.163, 590.833 694.750 C 591.017 694.337, 591.810 694, 592.597 694 C 593.384 694, 594.809 693.590, 595.764 693.089 C 598.222 691.799, 609.020 686.929, 612 685.765 C 615.608 684.357, 621.222 681.921, 623.236 680.889 C 624.191 680.400, 625.660 680, 626.500 680 C 627.340 680, 628.809 679.616, 629.764 679.147 C 641.774 673.248, 654 669.522, 654 671.760 C 654 672.442, 646.573 676.727, 637 681.569 C 635.075 682.542, 632.375 683.937, 631 684.668 C 629.625 685.399, 626.475 687.010, 624 688.249 C 621.525 689.487, 619.350 690.837, 619.167 691.250 C 618.983 691.663, 618.061 692, 617.117 692 C 616.173 692, 614.939 692.461, 614.375 693.025 C 613.439 693.961, 609.708 695.942, 587 707.560 C 582.875 709.671, 579.350 711.758, 579.167 712.199 C 578.983 712.639, 578.061 713, 577.117 713 C 576.173 713, 574.973 713.395, 574.450 713.878 C 573.928 714.361, 570.800 716.234, 567.500 718.041 C 564.200 719.848, 559.925 722.193, 558 723.251 C 553.553 725.696, 545.197 733.792, 544.365 736.462 C 544.016 737.583, 543.449 738.725, 543.105 739 C 542.073 739.825, 537 750.432, 537 751.764 C 537 752.444, 536.663 753.004, 536.250 753.008 C 535.235 753.018, 533 757.965, 533 760.199 C 533 762.629, 534.297 762.469, 539.085 759.446 C 549.851 752.650, 556.792 749.089, 568 744.611 C 573.225 742.523, 578.190 740.464, 579.033 740.035 C 579.876 739.606, 582.008 738.937, 583.771 738.550 C 585.534 738.163, 587.234 737.431, 587.548 736.923 C 587.861 736.415, 589.190 736, 590.500 736 C 591.810 736, 593.160 735.550, 593.500 735 C 593.840 734.450, 595.640 734, 597.500 734 C 599.360 734, 601.160 733.550, 601.500 733 C 601.840 732.450, 603.130 732, 604.368 732 C 605.605 732, 607.491 731.339, 608.559 730.532 C 610.956 728.719, 615 728.552, 615 730.266 C 615 731.354, 605.473 737.883, 602.515 738.822 C 601.957 739, 599.025 740.307, 596 741.727 C 592.975 743.147, 589.600 744.629, 588.500 745.021 C 584.921 746.294, 580.576 748.408, 576.770 750.727 C 574.718 751.977, 572.356 753, 571.520 753 C 570.684 753, 570 753.450, 570 754 C 570 754.550, 569.380 755, 568.622 755 C 567.865 755, 566.685 755.675, 566 756.500 C 565.315 757.325, 563.910 758, 562.878 758 C 561.845 758, 561 758.398, 561 758.883 C 561 759.369, 560.212 760.015, 559.250 760.319 C 557.311 760.931, 549.786 765.165, 549 766.086 C 548.725 766.408, 545.915 768.314, 542.755 770.320 C 533.973 775.898, 526.339 782.291, 517 791.892 C 507.466 801.693, 499.103 809, 497.418 809 C 496.802 809, 494.182 810.125, 491.596 811.500 C 489.010 812.875, 486.012 814, 484.934 814 C 482.973 814, 482.248 814.283, 476.346 817.357 C 474.611 818.261, 472.050 819, 470.655 819 C 469.260 819, 467.840 819.450, 467.500 820 C 467.160 820.550, 465.135 821, 463 821 C 460.865 821, 458.869 821.402, 458.565 821.894 C 458.261 822.386, 456.322 823.026, 454.256 823.315 C 452.190 823.605, 448.250 824.319, 445.500 824.902 C 435.245 827.077, 421.222 829.278, 412.500 830.082 C 407.550 830.538, 402.375 831.210, 401 831.575 C 390.543 834.351, 339.597 838.216, 315.500 838.061 C 290.515 837.901, 235.420 833.613, 232.118 831.573 C 231.393 831.125, 228.033 830.346, 224.650 829.841 C 214.023 828.256, 211.997 827.804, 211.432 826.890 C 211.129 826.400, 210.076 826, 209.090 826 C 208.104 826, 205.182 824.875, 202.596 823.500 C 200.010 822.125, 197.280 821, 196.530 821 C 195.780 821, 195.017 820.662, 194.833 820.250 C 194.650 819.837, 190.675 816.943, 186 813.818 C 181.325 810.692, 175.967 806.548, 174.093 804.608 C 170.928 801.331, 170.361 801.121, 166.093 801.638 C 161.807 802.158, 147.393 806.054, 142.203 808.096 C 140.940 808.593, 139.042 809, 137.987 809 C 136.931 809, 134.365 809.737, 132.284 810.639 C 128.308 812.360, 124.841 813.767, 121.500 815.014 C 114.734 817.539, 110.280 819.319, 108.764 820.103 C 107.809 820.596, 106.401 821, 105.636 821 C 104.870 821, 102.551 821.708, 100.480 822.573 C 97.134 823.971, 96.883 824.312, 98.218 825.646 C 100.269 827.697, 104.603 828.787, 122.504 831.750 C 125.257 832.206, 128.017 832.893, 128.639 833.277 C 130.403 834.367, 149.007 837.246, 165.394 838.964 C 170.285 839.477, 175.010 840.180, 175.894 840.526 C 178.918 841.712, 203.844 843.738, 242 845.898 C 253.275 846.536, 264.945 847.495, 267.934 848.029 C 275.042 849.299, 331.843 849.282, 346.828 848.005 C 353.248 847.458, 367.725 846.512, 379 845.902 C 413.082 844.059, 439.968 841.815, 443.084 840.555 C 445.080 839.747, 457.468 838.012, 466 837.346 C 469.575 837.067, 472.928 836.425, 473.450 835.919 C 473.972 835.414, 476.447 834.980, 478.950 834.956 C 481.452 834.932, 485.300 834.264, 487.500 833.471 C 489.700 832.679, 492.873 832.023, 494.550 832.015 C 496.228 832.007, 498.028 831.596, 498.550 831.102 C 499.072 830.609, 501.300 829.972, 503.500 829.687 C 510.166 828.824, 517.359 827.041, 518.409 825.991 C 518.954 825.446, 521.308 825, 523.641 825 C 525.974 825, 528.160 824.550, 528.500 824 C 528.840 823.450, 530.195 823, 531.512 823 C 532.829 823, 534.940 822.599, 536.203 822.109 C 537.466 821.619, 540.525 820.441, 543 819.490 C 545.475 818.539, 548.400 817.410, 549.500 816.981 C 550.600 816.553, 553.075 815.652, 555 814.981 C 564.376 811.711, 583.072 802.436, 593.721 795.771 C 598.793 792.597, 603.406 790, 603.971 790 C 604.537 790, 605 789.647, 605 789.216 C 605 788.784, 606.237 787.699, 607.750 786.803 C 609.263 785.908, 613.025 782.998, 616.111 780.337 C 619.197 777.677, 625.372 772.654, 629.835 769.175 C 634.297 765.697, 639.150 761.422, 640.618 759.675 C 642.086 757.929, 646.124 753.350, 649.590 749.500 C 655.267 743.194, 668 725.860, 668 724.437 C 668 724.123, 669.125 722.392, 670.500 720.589 C 671.875 718.786, 673 716.946, 673 716.500 C 673 716.054, 674.125 714.214, 675.500 712.411 C 676.875 710.608, 678 708.428, 678 707.567 C 678 706.705, 678.450 706, 679 706 C 679.550 706, 680 705.361, 680 704.580 C 680 703.798, 681.618 699.861, 683.596 695.830 C 685.573 691.798, 687.640 687.375, 688.188 686 C 688.736 684.625, 689.818 682.226, 690.593 680.669 C 691.367 679.112, 692 677.193, 692 676.405 C 692 675.618, 692.398 674.191, 692.884 673.236 C 694.254 670.548, 699 655.241, 699 653.513 C 699 652.666, 699.409 651.191, 699.909 650.236 C 700.985 648.182, 704.906 631.828, 706.200 624 C 707.827 614.152, 709.012 602.770, 709.908 588.374 C 710.391 580.604, 711.110 573.230, 711.504 571.987 C 711.899 570.743, 712.596 566.300, 713.052 562.113 C 713.509 557.926, 714.335 552.475, 714.887 550 C 717.152 539.844, 717.796 537.370, 718.872 534.685 C 719.492 533.137, 720 530.788, 720 529.465 C 720 528.143, 720.900 525.458, 722 523.500 C 725.819 516.701, 724.114 516.104, 718.428 522.250 M 277.750 538.729 C 273.210 539.595, 270 540.705, 270 541.408 C 270 542.068, 271.486 544.048, 273.303 545.809 L 276.606 549.010 314.553 549.471 C 335.424 549.724, 358.350 550.339, 365.500 550.837 C 383.702 552.105, 400.985 553.873, 402.139 554.586 C 402.675 554.917, 405.675 555.613, 408.806 556.133 C 417.474 557.572, 422.866 558.670, 430 560.449 C 433.575 561.340, 437.625 562.313, 439 562.610 C 440.375 562.907, 442.400 563.511, 443.500 563.951 C 444.600 564.391, 446.759 565.257, 448.297 565.875 C 452.233 567.458, 456.679 567.280, 457.357 565.512 C 457.671 564.694, 458.215 561.857, 458.567 559.208 L 459.206 554.391 454.011 551.695 C 451.153 550.213, 447.528 549, 445.955 549 C 444.381 549, 442.060 548.599, 440.797 548.108 C 439.534 547.618, 434.450 546.511, 429.500 545.648 C 424.550 544.785, 419.150 543.793, 417.500 543.444 C 412.769 542.442, 397.533 540.793, 368 538.086 C 350.256 536.460, 287.291 536.909, 277.750 538.729 M 153 547.182 C 141.121 550.874, 127.862 556.901, 118 563.090 C 109.836 568.214, 106.002 576.029, 106.001 587.550 C 106 593.433, 106.427 595.258, 108.578 598.575 C 112.269 604.268, 126.049 612.505, 135 614.370 C 136.375 614.657, 139.975 615.644, 143 616.565 C 146.025 617.486, 150.750 618.614, 153.500 619.072 C 156.250 619.530, 161.355 620.376, 164.844 620.952 C 168.333 621.527, 171.683 622.304, 172.288 622.678 C 172.893 623.052, 176.789 623.723, 180.944 624.169 C 185.100 624.615, 192.325 625.421, 197 625.961 C 201.675 626.500, 213.150 627.394, 222.500 627.947 C 231.850 628.499, 243.550 629.404, 248.500 629.958 C 261.024 631.359, 370.925 631.316, 378.545 629.907 C 381.796 629.306, 389.416 628.414, 395.478 627.925 C 409.611 626.785, 419.382 625.507, 424.814 624.088 C 429.002 622.994, 431 623.265, 431 624.927 C 431 625.862, 415.970 631, 413.235 631 C 412.226 631, 410.972 631.398, 410.450 631.883 C 409.927 632.369, 406.575 633.312, 403 633.979 C 399.425 634.646, 394.475 635.600, 392 636.100 C 389.525 636.599, 384.722 637.409, 381.327 637.898 C 377.932 638.387, 374.691 639.073, 374.127 639.422 C 373.562 639.771, 368.915 640.529, 363.800 641.106 C 358.685 641.683, 351.125 642.548, 347 643.028 C 316.472 646.581, 277.561 647.331, 238.500 645.120 C 208.230 643.407, 196.857 642.430, 185 640.527 C 179.225 639.599, 171.800 638.456, 168.500 637.986 C 165.200 637.515, 160.363 636.651, 157.750 636.065 C 155.137 635.479, 151.088 634.617, 148.750 634.149 C 146.412 633.681, 143.375 632.821, 142 632.239 C 140.625 631.657, 136.925 630.427, 133.778 629.506 C 130.630 628.585, 126.959 626.969, 125.620 625.916 C 124.280 624.862, 122.468 624, 121.592 624 C 120.717 624, 120 623.550, 120 623 C 120 622.450, 119.127 622, 118.059 622 C 116.991 622, 115.840 621.550, 115.500 621 C 114.497 619.377, 110.698 619.772, 111.336 621.432 C 111.638 622.220, 112.186 625.708, 112.554 629.182 C 113.227 635.535, 115.347 644.008, 117.072 647.236 C 117.582 648.191, 118 649.570, 118 650.299 C 118 651.029, 119.125 653.958, 120.500 656.808 C 121.875 659.658, 123 662.400, 123 662.901 C 123 663.401, 123.967 665.766, 125.148 668.155 C 126.330 670.545, 128.018 674.075, 128.898 676 C 129.779 677.925, 130.838 679.650, 131.250 679.833 C 131.662 680.017, 132 680.575, 132 681.073 C 132 681.572, 134.025 685.139, 136.500 689 C 138.975 692.861, 141 696.271, 141 696.577 C 141 696.883, 142.125 698.608, 143.500 700.411 C 144.875 702.214, 146 704.209, 146 704.844 C 146 705.480, 146.353 706, 146.784 706 C 147.216 706, 148.306 707.237, 149.207 708.750 C 150.109 710.263, 151.682 712.400, 152.703 713.500 C 153.725 714.600, 157.087 718.650, 160.175 722.500 C 169.098 733.625, 191.560 755.989, 193.827 756.005 C 194.197 756.007, 195.938 757.357, 197.696 759.005 C 199.453 760.652, 201.211 762, 201.601 762 C 201.992 762, 203.704 763.046, 205.406 764.324 C 207.108 765.602, 212.100 768.356, 216.500 770.443 C 220.900 772.531, 225.281 774.635, 226.236 775.119 C 227.191 775.604, 228.804 776, 229.820 776 C 230.836 776, 231.997 776.330, 232.400 776.733 C 234.689 779.022, 252.230 782.770, 271 784.981 C 275.675 785.532, 281.660 786.437, 284.299 786.991 C 290.488 788.292, 342.658 788.307, 349.940 787.010 C 352.998 786.465, 360.225 785.532, 366 784.937 C 392.660 782.189, 406.806 779.527, 409.600 776.733 C 410.003 776.330, 411.074 776, 411.980 776 C 412.885 776, 415.958 774.875, 418.808 773.500 C 421.658 772.125, 424.667 771, 425.495 771 C 426.323 771, 427 770.550, 427 770 C 427 769.450, 427.493 769, 428.097 769 C 428.700 769, 433.015 766.509, 437.685 763.465 C 446.011 758.038, 460.458 744.585, 466.824 736.331 L 470.040 732.161 469.367 719.561 C 468.944 711.661, 469.086 705.569, 469.745 703.230 C 471.198 698.078, 474.283 685.461, 475.546 679.500 C 475.896 677.850, 476.847 674.925, 477.659 673 C 478.471 671.075, 479.555 668.487, 480.068 667.250 C 480.580 666.013, 481.513 663.763, 482.140 662.250 C 484.629 656.247, 486.536 652.484, 487.250 652.167 C 487.663 651.983, 488 650.997, 488 649.976 C 488 648.954, 488.450 647.840, 489 647.500 C 491.215 646.131, 489.587 643.649, 480.564 634.641 C 472.198 626.288, 462 612.739, 462 609.976 C 462 609.424, 461.588 608.191, 461.084 607.236 C 457.543 600.523, 455.379 590.292, 455.851 582.500 C 456.137 577.780, 454.661 576.358, 452.389 579.166 C 449.707 582.479, 445.044 584.412, 429 588.857 C 427.075 589.390, 422.800 590.593, 419.500 591.531 C 407.346 594.982, 400.346 596.177, 381.500 598.016 C 375.450 598.606, 368.700 599.583, 366.500 600.188 C 361.142 601.659, 263.700 601.569, 251.974 600.081 C 247.285 599.486, 237.160 598.503, 229.474 597.896 C 204.601 595.932, 191.296 594.256, 183 592.043 C 180.525 591.382, 176.700 590.369, 174.500 589.791 C 168.470 588.208, 161.618 585.773, 160.550 584.835 C 160.028 584.376, 158.793 584, 157.808 584 C 156.204 584, 153.360 582.039, 149.367 578.179 C 148.548 577.387, 148 574.726, 148 571.545 C 148 566.640, 148.299 565.963, 151.897 562.712 C 155.718 559.260, 159.519 557.211, 165.500 555.379 C 169.081 554.282, 169.918 551.049, 167.554 547.442 C 165.571 544.416, 162.098 544.354, 153 547.182 M 578.500 645.583 C 575.200 647.501, 571.825 649.321, 571 649.626 C 569.596 650.146, 567.269 651.100, 562.500 653.111 C 552.723 657.234, 543.531 658.321, 529 657.074 C 517.035 656.047, 510.342 654.742, 508.720 653.120 C 508.104 652.504, 506.430 652, 505 652 C 503.570 652, 501.890 651.490, 501.267 650.867 C 498.800 648.400, 497.242 650.464, 490.969 664.500 C 488.784 669.389, 487.699 672.437, 485.986 678.500 C 485.520 680.150, 484.386 683.975, 483.466 687 C 480.434 696.967, 479.720 703.305, 479.747 720 C 479.780 740.381, 481.317 752.265, 484.985 760.500 C 486.386 763.645, 487.161 769.634, 487.660 781.172 C 488.063 790.492, 487.861 792.385, 486.061 796.110 C 484.927 798.456, 484 800.858, 484 801.448 C 484 802.038, 482.875 803.734, 481.500 805.217 C 480.125 806.699, 479 808.157, 479 808.456 C 479 809.676, 482.793 808.793, 487.500 806.478 C 490.250 805.125, 492.950 804.003, 493.500 803.983 C 494.718 803.941, 502.599 795.811, 506.086 791 C 507.481 789.075, 509.203 785.925, 509.912 784 C 510.622 782.075, 511.596 779.600, 512.078 778.500 C 512.560 777.400, 513.662 774.250, 514.528 771.500 C 515.393 768.750, 516.494 765.600, 516.975 764.500 C 517.456 763.400, 518.063 761.375, 518.323 760 C 518.746 757.771, 519.630 755.034, 522.036 748.500 C 522.441 747.400, 523.326 744.475, 524.002 742 C 524.678 739.525, 525.669 736.301, 526.202 734.835 C 528.860 727.535, 530.407 717.032, 531.555 698.500 C 532.296 686.540, 532.770 684.370, 534.305 685.906 C 535.138 686.739, 535.488 692.082, 535.459 703.550 C 535.436 712.598, 535.661 719.996, 535.959 719.992 C 536.667 719.982, 539 714.942, 539 713.423 C 539 712.775, 539.675 711.685, 540.500 711 C 541.325 710.315, 542 708.910, 542 707.878 C 542 706.845, 542.450 706, 543 706 C 543.550 706, 544 705.332, 544 704.515 C 544 702.956, 548.274 695.382, 553.130 688.337 C 554.709 686.047, 556 683.684, 556 683.087 C 556 682.489, 556.450 682, 557 682 C 557.550 682, 558 681.433, 558 680.740 C 558 680.047, 559.120 678.271, 560.490 676.794 C 561.859 675.318, 563.772 672.797, 564.740 671.193 C 567.109 667.267, 573.925 658.584, 579.299 652.646 C 584.856 646.506, 587.634 641.981, 585.807 642.048 C 585.088 642.074, 581.800 643.665, 578.500 645.583 M 966.500 675.183 C 963.750 677.413, 958.121 682.447, 953.990 686.369 C 949.860 690.291, 942.435 696.192, 937.490 699.482 C 926.771 706.614, 919 713.588, 919 716.078 C 919 717.070, 918.562 718.152, 918.027 718.483 C 917.461 718.833, 917.118 724.857, 917.207 732.915 C 917.352 746.092, 917.229 747.023, 914.597 752.623 C 907.306 768.136, 906.709 770.533, 907.226 782.196 C 908.039 800.535, 913.960 811.792, 925.469 816.883 C 937.431 822.175, 943.803 818.056, 952.360 799.500 C 953.882 796.200, 955.549 792.719, 956.064 791.764 C 956.579 790.809, 957 789.148, 957 788.073 C 957 786.998, 957.450 785.840, 958 785.500 C 958.550 785.160, 959 783.810, 959 782.500 C 959 781.190, 959.408 779.866, 959.908 779.557 C 960.407 779.249, 961.569 776.410, 962.491 773.248 C 963.412 770.087, 964.579 766.719, 965.083 765.764 C 965.587 764.809, 965.999 763.459, 965.997 762.764 C 965.996 762.069, 967.173 758.575, 968.614 755 C 970.055 751.425, 971.577 747.600, 971.997 746.500 C 972.417 745.400, 973.462 742.700, 974.319 740.500 C 975.177 738.300, 976.447 734.700, 977.143 732.500 C 977.839 730.300, 978.766 728.072, 979.204 727.550 C 979.642 727.028, 980 725.971, 980 725.201 C 980 724.432, 980.618 722.384, 981.374 720.651 C 984.163 714.258, 985.217 708.309, 985.217 698.975 C 985.217 688.695, 983.750 682.718, 979.395 675.250 C 976.155 669.696, 973.286 669.681, 966.500 675.183 M 175.653 683.098 C 176.018 684.969, 176.696 686.650, 177.159 686.833 C 177.621 687.017, 178 688.114, 178 689.272 C 178 691.336, 177.957 691.331, 175.806 689.022 C 172.637 685.621, 172.334 688.260, 175.427 692.315 C 176.842 694.170, 178 696.101, 178 696.605 C 178 697.108, 179.125 698.734, 180.500 700.217 C 181.875 701.699, 183 703.383, 183 703.958 C 183 705.517, 210.872 733.302, 215.500 736.356 C 217.700 737.808, 221.219 740.148, 223.320 741.557 C 229.324 745.582, 236.832 749.670, 242.500 752 C 244.150 752.678, 246.281 753.631, 247.236 754.117 C 248.191 754.603, 249.789 755, 250.786 755 C 251.784 755, 253.104 755.504, 253.720 756.120 C 254.847 757.247, 259.270 758.397, 268.500 759.963 C 271.250 760.430, 274.223 761.103, 275.106 761.458 C 275.990 761.813, 280.872 762.436, 285.957 762.842 C 294.942 763.560, 295.139 763.531, 292.990 761.790 C 291.773 760.806, 289.209 760, 287.290 760 C 285.372 760, 282.384 759.358, 280.651 758.573 C 278.918 757.788, 275.700 756.924, 273.500 756.653 C 268.611 756.052, 264.162 755.101, 261.500 754.089 C 255.424 751.780, 236.558 741.973, 230.641 738.049 C 226.868 735.547, 222.903 732.995, 221.830 732.377 C 220.757 731.760, 218.880 730.410, 217.660 729.377 C 216.440 728.345, 213.241 725.720, 210.551 723.544 C 199.643 714.721, 191.394 705.058, 184.362 692.866 C 181.795 688.415, 178.635 683.631, 177.342 682.235 L 174.989 679.696 175.653 683.098 M 732 685.054 C 708.438 686.804, 699.791 688.898, 698.047 693.278 C 697.561 694.500, 696.896 696.175, 696.570 697 C 696.245 697.825, 695.116 699.850, 694.062 701.500 C 693.008 703.150, 692.113 705.054, 692.073 705.731 C 692.033 706.407, 690.425 709.423, 688.500 712.433 C 686.575 715.442, 685 718.142, 685 718.433 C 685 718.723, 683.425 721.423, 681.500 724.433 C 679.575 727.442, 678 730.376, 678 730.952 C 678 731.528, 677.652 732, 677.227 732 C 676.802 732, 675.607 733.575, 674.570 735.500 C 673.533 737.425, 672.358 739, 671.959 739 C 670.874 739, 670.058 742.918, 671.020 743.512 C 671.478 743.795, 674.023 743.323, 676.676 742.463 C 683.634 740.208, 683.216 740.385, 703 731.305 C 706.025 729.916, 709.400 728.429, 710.500 728 C 714.776 726.333, 732.579 717.549, 734 716.406 C 734.825 715.742, 737.525 714.078, 740 712.708 C 742.475 711.339, 746.975 708.823, 750 707.119 C 765.806 698.211, 770.069 696.936, 764.357 702.825 C 760.927 706.360, 744.385 718.936, 742.111 719.737 C 741.225 720.049, 739.825 720.867, 739 721.555 C 736.652 723.514, 709.779 736.713, 701.500 739.974 C 700.400 740.407, 697.096 741.940, 694.158 743.381 C 691.219 744.821, 688.176 746, 687.394 746 C 686.612 746, 685.191 746.390, 684.236 746.866 C 681.652 748.155, 676.019 750.050, 671.518 751.146 C 667.979 752.006, 658.317 757.183, 657 758.923 C 656.725 759.286, 651.325 764.046, 645 769.500 C 638.675 774.954, 633.275 779.663, 633 779.964 C 632.725 780.265, 630.700 781.835, 628.500 783.453 C 626.300 785.071, 624.275 786.658, 624 786.980 C 623.228 787.884, 613.627 794.674, 612.500 795.113 C 611.950 795.327, 607.649 798.061, 602.942 801.189 C 594.451 806.831, 581.523 814, 579.838 814 C 579.355 814, 577.178 815.125, 575 816.500 C 572.822 817.875, 570.157 819, 569.079 819 C 568 819, 566.840 819.450, 566.500 820 C 566.160 820.550, 564.784 821, 563.441 821 C 560.279 821, 560.197 823.760, 563.335 824.548 C 566.739 825.402, 625.095 824.278, 634.500 823.177 C 638.900 822.662, 645.425 821.490, 649 820.572 C 652.575 819.655, 656.850 818.671, 658.500 818.384 C 660.150 818.098, 662.400 817.467, 663.500 816.982 C 664.600 816.497, 667.614 815.416, 670.198 814.580 C 680.441 811.264, 697.039 803.108, 704.124 797.909 C 723.497 783.694, 741.958 764.452, 754.700 745.194 C 757.863 740.412, 760.800 736.350, 761.226 736.167 C 761.652 735.983, 762 735.408, 762 734.888 C 762 734.367, 765.712 728.746, 770.250 722.396 C 774.788 716.046, 779.175 709.872, 780 708.675 C 780.825 707.479, 785.408 702.458, 790.184 697.518 C 795.954 691.551, 798.471 688.284, 797.684 687.784 C 797.033 687.370, 792.592 687.024, 787.815 687.015 C 783.038 687.007, 778.088 686.611, 776.815 686.136 C 773.400 684.862, 744.115 684.155, 732 685.054 M 501.381 704.750 C 499.874 712.708, 501.146 736.354, 503.148 737.591 C 503.616 737.881, 504 739.149, 504 740.410 C 504 741.671, 505.125 744.818, 506.500 747.404 C 507.875 749.990, 509 753.015, 509 754.126 C 509 755.518, 509.544 756.037, 510.750 755.794 C 512.094 755.522, 512.424 754.636, 512.173 751.970 C 511.993 750.062, 511.273 747.600, 510.574 746.500 C 509.874 745.400, 508.980 742.250, 508.586 739.500 C 508.192 736.750, 507.441 732.025, 506.917 729 C 506.393 725.975, 505.726 719.450, 505.435 714.500 C 504.812 703.891, 504.296 701, 503.026 701 C 502.512 701, 501.771 702.688, 501.381 704.750 M 630.500 707.072 C 627.076 710.401, 623.766 713, 622.948 713 C 622.427 713, 622 713.450, 622 714 C 622 715.504, 623.551 715.218, 627.533 712.981 C 633.443 709.662, 636 707.821, 636 706.885 C 636 705.701, 631.762 705.846, 630.500 707.072 M 188 776.822 C 188 789.506, 189.710 794.615, 196.092 800.997 C 201.593 806.498, 215.264 814.885, 222 816.892 C 224.475 817.629, 227.699 818.669, 229.165 819.202 C 236.819 821.988, 246.748 823.509, 267.500 825.072 C 274.650 825.610, 282.419 826.490, 284.764 827.026 C 290.406 828.315, 336.803 828.211, 349.500 826.881 C 355 826.305, 363.775 825.452, 369 824.986 C 381.138 823.904, 394.714 821.285, 398.500 819.296 C 399.600 818.718, 402.300 817.711, 404.500 817.059 C 409.353 815.619, 419.372 810.864, 419.833 809.782 C 420.017 809.352, 420.782 809, 421.533 809 C 423.595 809, 431.051 803.646, 435.001 799.327 C 439.167 794.773, 441 791.683, 441 789.214 C 441 788.216, 441.405 786.973, 441.899 786.450 C 443.347 784.921, 444.360 771.341, 443.086 770.553 C 442.484 770.181, 440.306 770.747, 438.246 771.811 C 429.606 776.274, 423.366 779, 421.795 779 C 420.873 779, 419.840 779.450, 419.500 780 C 419.160 780.550, 417.835 781, 416.555 781 C 415.276 781, 412.940 781.672, 411.364 782.494 C 409.789 783.315, 407.739 783.990, 406.809 783.994 C 405.879 783.997, 404.840 784.450, 404.500 785 C 404.160 785.550, 401.910 786, 399.500 786 C 397.090 786, 394.840 786.450, 394.500 787 C 394.160 787.550, 391.913 788, 389.506 788 C 387.099 788, 383.863 788.506, 382.315 789.125 C 377.387 791.094, 334.238 794.203, 313.500 794.083 C 296.036 793.983, 261.187 791.110, 257.043 789.429 C 256.194 789.085, 252.575 788.362, 249 787.822 C 228.992 784.801, 224.027 783.578, 216.764 779.883 C 215.809 779.397, 214.379 779, 213.586 779 C 212.794 779, 209.124 777.425, 205.431 775.500 C 201.737 773.575, 198.321 772, 197.838 772 C 197.355 772, 195.178 770.875, 193 769.500 C 190.822 768.125, 188.806 767, 188.520 767 C 188.234 767, 188 771.420, 188 776.822 M 684.691 788.643 C 683.800 789.533, 672.885 790.943, 658.618 792.011 C 650.983 792.582, 642.883 793.477, 640.618 794 C 638.353 794.523, 632.364 794.962, 627.309 794.976 C 618.869 794.998, 615.441 795.918, 617.972 797.483 C 618.524 797.824, 628.109 798.128, 639.272 798.158 C 654.447 798.199, 661.829 797.781, 668.533 796.503 C 681.343 794.060, 688 792.012, 688 790.514 C 688 789.152, 685.561 787.772, 684.691 788.643"/></svg>